<svg xmlns="http://www.w3.org/2000/svg" xmlns:xlink="http://www.w3.org/1999/xlink" width="364" height="70" viewBox="0 0 364 70"><defs><filter id="a" x="0" y="0" width="364" height="70" filterUnits="userSpaceOnUse"><feOffset dy="3" input="SourceAlpha"/><feGaussianBlur stdDeviation="3" result="b"/><feFlood flood-opacity="0.161" result="c"/><feComposite operator="out" in="SourceGraphic" in2="b"/><feComposite operator="in" in="c"/><feComposite operator="in" in2="SourceGraphic"/></filter></defs><g data-type="innerShadowGroup"><path d="M24,0s79-2,158-2S340,0,340,0a24,24,0,0,1,24,24V42a24,24,0,0,1-24,24s-79,2-158,2S24,66,24,66A24,24,0,0,1,0,42V24A24,24,0,0,1,24,0Z" transform="translate(0 2)" fill="#f5f5f5"/><g transform="matrix(1, 0, 0, 1, 0, 0)" filter="url(#a)"><path d="M24,0s79-2,158-2S340,0,340,0a24,24,0,0,1,24,24V42a24,24,0,0,1-24,24s-79,2-158,2S24,66,24,66A24,24,0,0,1,0,42V24A24,24,0,0,1,24,0Z" transform="translate(0 2)" fill="#fff"/></g></g></svg>