<svg width="364" height="10" viewBox="0 0 364 10" fill="none" xmlns="http://www.w3.org/2000/svg">
    <path
        d="M5 14C3.67392 14 2.40216 13.4733 1.46448 12.5356C0.526796 11.598 0 10.3261 0 9C0 7.67392 0.526796 6.40204 1.46448 5.46436C2.40216 4.52668 3.67392 4 5 4H138C138.931 2.75718 140.138 1.74857 141.527 1.0542C142.916 0.359833 144.447 -0.00116364 146 2.81784e-06H219C220.48 -0.000978692 221.938 0.363733 223.244 1.06153C224.55 1.75932 225.663 2.7686 226.485 4H359C360.326 4 361.598 4.52668 362.536 5.46436C363.473 6.40204 364 7.67392 364 9C364 10.3261 363.473 11.598 362.536 12.5356C361.598 13.4733 360.326 14 359 14H5Z"
        fill="white" />
</svg>
