<svg width="18" height="30" viewBox="0 0 18 30" fill="none" xmlns="http://www.w3.org/2000/svg">
    <path
        d="M14.667 29.166C15.4176 29.1636 16.1368 28.8644 16.6676 28.3336C17.1984 27.8028 17.4976 27.0836 17.5 26.333L17.486 21.833C17.4848 21.0844 17.1896 20.3661 16.664 19.833L11.833 15.002L16.664 10.143C17.1919 9.61143 17.4875 8.8922 17.486 8.14301L17.5 3.66601C17.4976 2.91538 17.1984 2.19617 16.6676 1.6654C16.1368 1.13462 15.4176 0.835381 14.667 0.833008H3.333C2.58237 0.835381 1.86317 1.13462 1.33239 1.6654C0.801611 2.19617 0.502373 2.91538 0.5 3.66601V8.14301C0.501661 8.8951 0.796552 9.6169 1.322 10.155L6.167 15L1.336 19.816C1.07116 20.0799 0.860992 20.3935 0.717536 20.7387C0.57408 21.084 0.500156 21.4541 0.5 21.828V26.328C0.502373 27.0786 0.801611 27.7978 1.33239 28.3286C1.86317 28.8594 2.58237 29.1586 3.333 29.161L14.667 29.166ZM3.333 8.04401V5.08301C3.33406 4.70752 3.48369 4.34771 3.7492 4.0822C4.01471 3.81669 4.37451 3.66706 4.75 3.66601H13.25C13.6255 3.66706 13.9853 3.81669 14.2508 4.0822C14.5163 4.34771 14.6659 4.70752 14.667 5.08301V8.04401C14.6642 8.41967 14.5171 8.77988 14.256 9.05001L9 14.291L3.744 9.03301C3.48397 8.76909 3.33661 8.41449 3.333 8.04401Z"
        fill="white" />
</svg>
