<svg width="123" height="156" viewBox="0 0 123 156" fill="none" xmlns="http://www.w3.org/2000/svg">
<path opacity="0.05" d="M17.506 155.199C12.8679 155.187 8.42313 153.339 5.14291 150.06C1.8627 146.781 0.0137252 142.337 0 137.699V15.199C0.0137252 10.5609 1.8627 6.11676 5.14291 2.83768C8.42313 -0.441414 12.8679 -2.28886 17.506 -2.301H54.078C55.8702 -7.41568 59.2074 -11.8471 63.6281 -14.9823C68.0487 -18.1175 73.3344 -19.8016 78.754 -19.8016C84.1736 -19.8016 89.4593 -18.1175 93.8799 -14.9823C98.3006 -11.8471 101.638 -7.41568 103.43 -2.301H140C144.637 -2.28754 149.081 -0.439478 152.36 2.8395C155.638 6.11847 157.487 10.5619 157.5 15.199V58.95H140V15.199H122.5V23.949C122.486 28.5861 120.638 33.0293 117.359 36.3082C114.08 39.5871 109.637 41.4353 105 41.449H52.5C47.8624 41.4358 43.4186 39.5875 40.1395 36.3081C36.8604 33.0286 35.0127 28.5846 35 23.947V15.199H17.5V137.699H70V155.199H17.506ZM70 6.448C69.9996 8.17915 70.5126 9.87154 71.4741 11.3111C72.4357 12.7507 73.8025 13.8727 75.4018 14.5354C77.0011 15.1981 78.761 15.3716 80.4589 15.0339C82.1568 14.6963 83.7165 13.8627 84.9406 12.6386C86.1647 11.4145 86.9983 9.85485 87.3359 8.15694C87.6736 6.45903 87.5001 4.69913 86.8374 3.09983C86.1747 1.50053 85.0527 0.133677 83.6131 -0.827854C82.1735 -1.78938 80.4812 -2.30239 78.75 -2.302C76.4313 -2.29566 74.2094 -1.37176 72.5698 0.267813C70.9302 1.90738 70.0063 4.1293 70 6.448ZM103.254 140.236L76.563 113.636C74.8217 111.896 73.8431 109.535 73.8423 107.073C73.8416 104.612 74.8188 102.25 76.559 100.509C78.2992 98.7677 80.6599 97.7891 83.1217 97.7883C85.5835 97.7876 87.9447 98.7648 89.686 100.505L109.463 120.199L150.94 78.634C151.799 77.7659 152.822 77.0766 153.948 76.6058C155.075 76.1349 156.284 75.892 157.506 75.8909C158.727 75.8897 159.936 76.1305 161.064 76.5993C162.192 77.0681 163.216 77.7556 164.076 78.6221C164.937 79.4886 165.617 80.517 166.079 81.6479C166.54 82.7789 166.772 83.9899 166.763 85.2112C166.753 86.4324 166.502 87.6397 166.024 88.7634C165.545 89.8871 164.849 90.9049 163.975 91.758L115.588 140.234C114.78 141.046 113.819 141.691 112.761 142.13C111.702 142.57 110.568 142.796 109.422 142.796C108.276 142.796 107.142 142.57 106.083 142.13C105.025 141.691 104.064 141.046 103.256 140.234L103.254 140.236Z" fill="white"/>
</svg>
