<svg id="ic-correct-answer" xmlns="http://www.w3.org/2000/svg" width="34" height="34"
    viewBox="0 0 34 34">
    <g id="Group_585" data-name="Group 585">
        <rect id="Rectangle_944" data-name="Rectangle 944" width="34" height="34" fill="none" />
    </g>
    <g id="Group_587" data-name="Group 587" transform="translate(4.25 1.417)">
        <g id="Group_586" data-name="Group 586">
            <path id="Path_485" data-name="Path 485"
                d="M5.833,6.667H8.667V8.083A2.842,2.842,0,0,0,11.5,10.917H20a2.842,2.842,0,0,0,2.833-2.833V6.667h2.833V13.75H28.5V6.667a2.842,2.842,0,0,0-2.833-2.833H19.745a4.233,4.233,0,0,0-7.99,0H5.833A2.842,2.842,0,0,0,3,6.667V26.5a2.842,2.842,0,0,0,2.833,2.833h8.5V26.5h-8.5ZM15.75,3.833A1.417,1.417,0,1,1,14.333,5.25,1.421,1.421,0,0,1,15.75,3.833Z"
                transform="translate(-3 -1)" fill="#fff" />
            <path id="Path_486" data-name="Path 486"
                d="M26.045,12.378a1.514,1.514,0,0,0-2.125,0L17.2,19.107,14,15.92a1.514,1.514,0,0,0-2.125,0h0a1.514,1.514,0,0,0,0,2.125L16.2,22.351a1.411,1.411,0,0,0,2,0L26.031,14.5A1.5,1.5,0,0,0,26.045,12.378Z"
                transform="translate(0.518 3.559)" fill="#fff" />
        </g>
    </g>
</svg>
