<svg id="ic-guess-ithe-sign" xmlns="http://www.w3.org/2000/svg" width="34" height="34"
    viewBox="0 0 34 34">
    <g id="Group_583" data-name="Group 583">
        <rect id="Rectangle_942" data-name="Rectangle 942" width="34" height="34" fill="none" />
        <rect id="Rectangle_943" data-name="Rectangle 943" width="34" height="34" fill="none" />
    </g>
    <g id="Group_584" data-name="Group 584" transform="translate(9.972 4.25)">
        <path id="Path_484" data-name="Path 484"
            d="M8.287,9.432a2,2,0,0,1-.935-2.9A7.883,7.883,0,0,1,14.053,3a7.607,7.607,0,0,1,6.772,3.414,6.809,6.809,0,0,1,.043,6.942c-1.7,2.508-3.329,3.273-4.208,4.887a3.272,3.272,0,0,0-.425,1.332,2.064,2.064,0,0,1-2.026,1.842,2.091,2.091,0,0,1-2.1-2.3,5.763,5.763,0,0,1,.652-2.182c1.091-1.969,3.187-3.131,4.406-4.873,1.289-1.827.567-5.242-3.088-5.242a3.89,3.89,0,0,0-3.4,1.9A1.934,1.934,0,0,1,8.287,9.432ZM16.9,27.083a2.833,2.833,0,1,1-2.833-2.833A2.842,2.842,0,0,1,16.9,27.083Z"
            transform="translate(-7.039 -3)" fill="#fff" />
    </g>
</svg>
