<svg width="128" height="118" viewBox="0 0 128 118" fill="none" xmlns="http://www.w3.org/2000/svg">
    <path
        d="M164.667 5.833H152.167V-27.5C152.154 -31.9164 150.394 -36.1482 147.271 -39.2711C144.148 -42.3939 139.916 -44.1541 135.5 -44.167H102.167V-56.667C102.167 -62.1924 99.972 -67.4915 96.065 -71.3985C92.158 -75.3056 86.8589 -77.5005 81.3335 -77.5005C75.8081 -77.5005 70.509 -75.3056 66.602 -71.3985C62.695 -67.4915 60.5 -62.1924 60.5 -56.667V-44.167H27.167C22.7592 -44.1511 18.5376 -42.3874 15.4286 -39.2628C12.3195 -36.1382 10.5769 -31.9079 10.583 -27.5V4.167H23C28.9674 4.167 34.6903 6.53753 38.9099 10.7571C43.1295 14.9767 45.5 20.6996 45.5 26.667C45.5 32.6344 43.1295 38.3573 38.9099 42.5769C34.6903 46.7965 28.9674 49.167 23 49.167H10.5V80.834C10.5132 85.2502 12.2734 89.4818 15.3963 92.6044C18.5191 95.7271 22.7508 97.4871 27.167 97.5H58.833V85C58.833 79.0326 61.2035 73.3097 65.4231 69.0901C69.6427 64.8705 75.3656 62.5 81.333 62.5C87.3004 62.5 93.0233 64.8705 97.2429 69.0901C101.462 73.3097 103.833 79.0326 103.833 85V97.5H135.5C139.916 97.4871 144.148 95.7269 147.271 92.6041C150.394 89.4812 152.154 85.2494 152.167 80.833V47.5H164.667C170.192 47.5 175.491 45.305 179.399 41.398C183.306 37.491 185.501 32.1919 185.501 26.6665C185.501 21.1411 183.306 15.842 179.399 11.935C175.491 8.02795 170.192 5.833 164.667 5.833Z"
        fill="#ECF0FC" />
    <path
        d="M154.667 25.833H142.167V-7.5C142.154 -11.9164 140.394 -16.1482 137.271 -19.2711C134.148 -22.3939 129.916 -24.1541 125.5 -24.167H92.167V-36.667C92.167 -42.1924 89.972 -47.4915 86.065 -51.3985C82.158 -55.3055 76.8589 -57.5005 71.3335 -57.5005C65.8081 -57.5005 60.509 -55.3055 56.602 -51.3985C52.695 -47.4915 50.5 -42.1924 50.5 -36.667V-24.167H17.167C12.7592 -24.1511 8.53761 -22.3874 5.42856 -19.2628C2.31951 -16.1382 0.57688 -11.9079 0.583 -7.5V24.167H13C18.9674 24.167 24.6903 26.5375 28.9099 30.7571C33.1295 34.9767 35.5 40.6996 35.5 46.667C35.5 52.6344 33.1295 58.3573 28.9099 62.5769C24.6903 66.7965 18.9674 69.167 13 69.167H0.5V100.834C0.513191 105.25 2.27344 109.482 5.39628 112.604C8.51913 115.727 12.7508 117.487 17.167 117.5H48.833V105C48.833 99.0326 51.2035 93.3097 55.4231 89.0901C59.6427 84.8705 65.3656 82.5 71.333 82.5C77.3004 82.5 83.0233 84.8705 87.2429 89.0901C91.4625 93.3097 93.833 99.0326 93.833 105V117.5H125.5C129.916 117.487 134.148 115.727 137.271 112.604C140.394 109.481 142.154 105.249 142.167 100.833V67.5H154.667C160.192 67.5 165.491 65.3051 169.399 61.398C173.306 57.491 175.501 52.1919 175.501 46.6665C175.501 41.1411 173.306 35.842 169.399 31.935C165.491 28.028 160.192 25.833 154.667 25.833Z"
        stroke="#B8BBED" />
</svg>
