<svg id="ic-Magic_Triangle" data-name="ic-Magic Triangle" xmlns="http://www.w3.org/2000/svg" width="34" height="34" viewBox="0 0 34 34">
  <g id="Group_590" data-name="Group 590">
    <rect id="Rectangle_946" data-name="Rectangle 946" width="34" height="34" fill="none"/>
    <rect id="Rectangle_947" data-name="Rectangle 947" width="34" height="34" fill="none"/>
  </g>
  <path id="device_hub_black_24dp" d="M25.032,23.459l-6.295-6.295v-5a4.721,4.721,0,1,0-3.147,0v5L9.295,23.459H4.574A1.578,1.578,0,0,0,3,25.033v4.721a1.578,1.578,0,0,0,1.574,1.574H9.295a1.578,1.578,0,0,0,1.574-1.574V26.528l6.295-6.61,6.295,6.61v3.226a1.578,1.578,0,0,0,1.574,1.574h4.721a1.578,1.578,0,0,0,1.574-1.574V25.033a1.578,1.578,0,0,0-1.574-1.574Z" transform="translate(0 0.002)" fill="#fff"/>
</svg>
