<svg id="ic-math-puzzle" xmlns="http://www.w3.org/2000/svg" width="34" height="34"
    viewBox="0 0 34 34">
    <g id="Group_717" data-name="Group 717">
        <rect id="Rectangle_1015" data-name="Rectangle 1015" width="34" height="34" fill="none" />
        <rect id="Rectangle_1016" data-name="Rectangle 1016" width="34" height="34" fill="none" />
    </g>
    <g id="Group_718" data-name="Group 718" transform="translate(4.25 4.25)">
        <path id="Path_559" data-name="Path 559"
            d="M25.667,3H5.833A2.842,2.842,0,0,0,3,5.833V25.667A2.842,2.842,0,0,0,5.833,28.5H25.667A2.842,2.842,0,0,0,28.5,25.667V5.833A2.842,2.842,0,0,0,25.667,3ZM17.96,8h0a1.069,1.069,0,0,1,1.5,0l1.247,1.247L21.955,8a1.069,1.069,0,0,1,1.5,0h0a1.069,1.069,0,0,1,0,1.5L22.21,10.749,23.457,12a1.069,1.069,0,0,1,0,1.5h0a1.069,1.069,0,0,1-1.5,0l-1.247-1.233-1.247,1.247a1.069,1.069,0,0,1-1.5,0h0a1.069,1.069,0,0,1,0-1.5l1.247-1.247L17.96,9.517A1.06,1.06,0,0,1,17.96,8ZM8.667,9.687h4.958a1.07,1.07,0,0,1,1.063,1.062h0a1.07,1.07,0,0,1-1.062,1.063H8.667A1.07,1.07,0,0,1,7.6,10.749h0A1.07,1.07,0,0,1,8.667,9.687Zm5.313,11.73H12.208v1.771a1.07,1.07,0,0,1-1.062,1.063h0a1.07,1.07,0,0,1-1.062-1.062V21.417H8.313A1.07,1.07,0,0,1,7.25,20.354h0a1.07,1.07,0,0,1,1.063-1.062h1.771V17.521a1.07,1.07,0,0,1,1.063-1.062h0a1.07,1.07,0,0,1,1.063,1.063v1.771h1.771a1.07,1.07,0,0,1,1.063,1.063h0A1.07,1.07,0,0,1,13.979,21.417Zm9.208,1.771H18.229a1.07,1.07,0,0,1-1.062-1.062h0a1.07,1.07,0,0,1,1.063-1.062h4.958a1.07,1.07,0,0,1,1.063,1.063h0A1.07,1.07,0,0,1,23.188,23.188Zm0-3.542H18.229a1.07,1.07,0,0,1-1.062-1.062h0a1.07,1.07,0,0,1,1.063-1.062h4.958a1.07,1.07,0,0,1,1.063,1.063h0A1.07,1.07,0,0,1,23.188,19.646Z"
            transform="translate(-3 -3)" fill="#fff" />
    </g>
</svg>
