<svg xmlns="http://www.w3.org/2000/svg" width="176" height="176" viewBox="0 0 176 176">
    <path id="bg-Math_Puzzle-outline" data-name="bg-Math Puzzle-outline"
        d="M22.444,2.5H158.556A19.7,19.7,0,0,1,166.3,4.074,20.134,20.134,0,0,1,176.926,14.7a19.7,19.7,0,0,1,1.574,7.745V158.556a19.7,19.7,0,0,1-1.574,7.745A20.134,20.134,0,0,1,166.3,176.926a19.7,19.7,0,0,1-7.745,1.574H22.444a19.7,19.7,0,0,1-7.745-1.574A20.134,20.134,0,0,1,4.074,166.3,19.7,19.7,0,0,1,2.5,158.556V22.444A19.7,19.7,0,0,1,4.074,14.7,20.134,20.134,0,0,1,14.7,4.074,19.7,19.7,0,0,1,22.444,2.5Zm136.111,175A18.966,18.966,0,0,0,177.5,158.556V22.444A18.966,18.966,0,0,0,158.556,3.5H22.444A18.966,18.966,0,0,0,3.5,22.444V158.556A18.966,18.966,0,0,0,22.444,177.5ZM110.819,34.7a7.727,7.727,0,0,1,5.506,2.261l8.2,8.2,8.2-8.2a7.787,7.787,0,0,1,11.013,11.013l-8.2,8.2,8.2,8.2A7.787,7.787,0,0,1,132.73,75.4l-8.2-8.107-8.2,8.2A7.787,7.787,0,0,1,105.313,64.48l8.2-8.2-8.2-8.2a7.857,7.857,0,0,1-2.334-5.657,7.624,7.624,0,0,1,2.338-5.457A7.727,7.727,0,0,1,110.819,34.7Zm13.708,11.877-8.909-8.909a6.835,6.835,0,0,0-9.6,0l-.006.006a6.631,6.631,0,0,0-2.035,4.748,6.864,6.864,0,0,0,2.041,4.942l8.909,8.909-8.909,8.909a6.787,6.787,0,0,0,9.6,9.6l8.907-8.907,8.909,8.808a6.787,6.787,0,0,0,9.6-9.6l-8.909-8.909,8.909-8.909a6.787,6.787,0,0,0-9.6-9.6ZM41.889,48.389H75.917a7.792,7.792,0,0,1,0,15.583H41.889a7.792,7.792,0,0,1,0-15.583ZM75.917,62.972a6.792,6.792,0,0,0,0-13.583H41.889a6.792,6.792,0,1,0,0,13.583ZM58.9,94.861a7.845,7.845,0,0,1,7.792,7.792v11.653H78.347a7.792,7.792,0,0,1,0,15.583H66.694v11.653a7.792,7.792,0,0,1-15.583,0V129.889H39.458a7.792,7.792,0,0,1,0-15.583H51.111V102.653A7.845,7.845,0,0,1,58.9,94.861Zm19.444,34.028a6.792,6.792,0,1,0,0-13.583H65.694V102.653a6.792,6.792,0,0,0-13.583,0v12.653H39.458a6.792,6.792,0,1,0,0,13.583H52.111v12.653a6.792,6.792,0,0,0,13.583,0V128.889Zm29.167-26.736h34.028a7.792,7.792,0,0,1,0,15.583H107.514a7.792,7.792,0,0,1,0-15.583Zm34.028,14.583a6.792,6.792,0,0,0,0-13.583H107.514a6.792,6.792,0,1,0,0,13.583Zm-34.028,9.722h34.028a7.792,7.792,0,0,1,0,15.583H107.514a7.792,7.792,0,0,1,0-15.583Zm34.028,14.583a6.792,6.792,0,0,0,0-13.583H107.514a6.792,6.792,0,1,0,0,13.583Z"
        transform="translate(-2.5 -2.5)" fill="#436add" opacity="0.16" />
</svg>
