<svg id="ic-Math_Grid" data-name="ic-Math Grid" xmlns="http://www.w3.org/2000/svg" width="34" height="34" viewBox="0 0 34 34">
  <path id="Path_545" data-name="Path 545" d="M0,0H34V34H0Z" fill="none"/>
  <path id="Path_546" data-name="Path 546" d="M27.5,2H4.833A2.842,2.842,0,0,0,2,4.833V27.5a2.842,2.842,0,0,0,2.833,2.833H27.5A2.842,2.842,0,0,0,30.333,27.5V4.833A2.842,2.842,0,0,0,27.5,2Zm-17,25.5H6.25a1.421,1.421,0,0,1-1.417-1.417v-4.25H10.5Zm0-8.5H4.833V13.333H10.5Zm0-8.5H4.833V6.25A1.421,1.421,0,0,1,6.25,4.833H10.5Zm8.5,17H13.333V21.833H19ZM19,19H13.333V13.333H19Zm0-8.5H13.333V4.833H19Zm7.083,17h-4.25V21.833H27.5v4.25A1.421,1.421,0,0,1,26.083,27.5ZM27.5,19H21.833V13.333H27.5Zm0-8.5H21.833V4.833h4.25A1.421,1.421,0,0,1,27.5,6.25Z" transform="translate(0.833 0.833)" fill="#fff"/>
</svg>
