<svg xmlns="http://www.w3.org/2000/svg" width="176" height="176" viewBox="0 0 176 176">
  <path id="bg-Memory_Puzzle-outline" data-name="bg-Memory Puzzle-outline" d="M89.5,1.5a88.541,88.541,0,0,1,17.727,1.789,87.527,87.527,0,0,1,31.464,13.247,88.32,88.32,0,0,1,31.89,38.721,87.535,87.535,0,0,1,5.13,16.516,88.732,88.732,0,0,1,0,35.455,87.527,87.527,0,0,1-13.247,31.464,88.32,88.32,0,0,1-38.721,31.89,87.535,87.535,0,0,1-16.516,5.13,88.732,88.732,0,0,1-35.455,0,87.528,87.528,0,0,1-31.464-13.247,88.32,88.32,0,0,1-31.89-38.721,87.535,87.535,0,0,1-5.13-16.516,88.732,88.732,0,0,1,0-35.455A87.528,87.528,0,0,1,16.536,40.309,88.32,88.32,0,0,1,55.257,8.419a87.535,87.535,0,0,1,16.516-5.13A88.541,88.541,0,0,1,89.5,1.5Zm0,175a87,87,0,1,0-87-87A87.1,87.1,0,0,0,89.5,176.5ZM89,36.5h.5a52.992,52.992,0,1,1-37.454,90.454l-.354-.354L89,89.293Zm.511,104.956A51.978,51.978,0,0,0,90,37.5v52.2l-.146.146L53.109,126.6A51.628,51.628,0,0,0,89.511,141.456Z" transform="translate(-1.5 -1.5)" fill="#560bad" opacity="0.16"/>
</svg>
