<svg width="40" height="40" viewBox="0 0 40 40" fill="none" xmlns="http://www.w3.org/2000/svg">
<path d="M20.4089 0.908997C16.5522 0.908997 12.7821 2.05265 9.57533 4.19534C6.36857 6.33803 3.8692 9.38351 2.39329 12.9467C0.917385 16.5098 0.53122 20.4306 1.28363 24.2133C2.03604 27.9959 3.89324 31.4705 6.62036 34.1976C9.34749 36.9247 12.8221 38.7819 16.6047 39.5343C20.3873 40.2867 24.3081 39.9006 27.8713 38.4246C31.4344 36.9487 34.4799 34.4494 36.6226 31.2426C38.7653 28.0359 39.9089 24.2657 39.9089 20.409C39.9071 15.2378 37.852 10.279 34.1955 6.62246C30.5389 2.96591 25.5801 0.910852 20.4089 0.908997ZM16.5089 27.234V13.584C16.5086 13.4028 16.5588 13.225 16.6539 13.0708C16.749 12.9165 16.8853 12.7919 17.0474 12.7108C17.2094 12.6298 17.3909 12.5956 17.5714 12.612C17.7519 12.6285 17.9242 12.695 18.0689 12.804L27.1749 19.629C27.2973 19.7189 27.3968 19.8364 27.4654 19.9719C27.534 20.1074 27.5697 20.2571 27.5697 20.409C27.5697 20.5609 27.534 20.7106 27.4654 20.8461C27.3968 20.9816 27.2973 21.0991 27.1749 21.189L18.0689 28.014C17.9242 28.123 17.7519 28.1895 17.5714 28.206C17.3909 28.2224 17.2094 28.1882 17.0474 28.1072C16.8853 28.0261 16.749 27.9015 16.6539 27.7472C16.5588 27.593 16.5086 27.4152 16.5089 27.234Z" fill="white"/>
</svg>
