<svg id="ic-Picture_Puzzle" data-name="ic-Picture Puzzle" xmlns="http://www.w3.org/2000/svg" width="34" height="34" viewBox="0 0 34 34">
  <path id="Path_553" data-name="Path 553" d="M0,0H34V34H0Z" fill="none"/>
  <path id="Path_554" data-name="Path 554" d="M28.208,15.167H26.083V9.5A2.842,2.842,0,0,0,23.25,6.667H17.583V4.542a3.542,3.542,0,1,0-7.083,0V6.667H4.833A2.83,2.83,0,0,0,2.014,9.5v5.383H4.125a3.825,3.825,0,0,1,0,7.65H2v5.383A2.842,2.842,0,0,0,4.833,30.75h5.383V28.625a3.825,3.825,0,1,1,7.65,0V30.75H23.25a2.842,2.842,0,0,0,2.833-2.833V22.25h2.125a3.542,3.542,0,0,0,0-7.083Z" transform="translate(0.833 0.417)" fill="#fff"/>
</svg>
