<svg id="ic-quick-calculation" xmlns="http://www.w3.org/2000/svg" width="34" height="34"
    viewBox="0 0 34 34">
    <g id="Group_588" data-name="Group 588">
        <rect id="Rectangle_945" data-name="Rectangle 945" width="34" height="34" fill="none" />
    </g>
    <g id="Group_589" data-name="Group 589" transform="translate(9.919 4.25)">
        <path id="Path_487" data-name="Path 487"
            d="M12.2,28.5h0a.817.817,0,0,1-.808-.935l1.275-8.982H7.708c-1.247,0-.467-1.062-.439-1.1,1.785-3.159,4.463-7.834,8-14.067A.821.821,0,0,1,15.981,3h0a.817.817,0,0,1,.808.935l-1.275,8.982h4.972c.567,0,.878.269.567.935q-6.991,12.2-8.146,14.237A.8.8,0,0,1,12.2,28.5Z"
            transform="translate(-7.002 -3)" fill="#fff" />
    </g>
</svg>
