<svg width="97" height="155" viewBox="0 0 97 155" fill="none" xmlns="http://www.w3.org/2000/svg">
<path opacity="0.05" d="M9.10999 21.816C1.74199 18.684 -1.39001 9.566 3.03099 2.934C11.965 -10.329 26.886 -20 46.596 -20C68.241 -20 83.07 -10.145 90.622 2.2C97.069 12.792 100.846 32.595 90.898 47.332C79.846 63.632 69.258 68.605 63.544 79.105C62.0101 81.7583 61.0676 84.7117 60.781 87.763C60.4279 91.0235 58.8931 94.0418 56.4664 96.2479C54.0398 98.4541 50.8893 99.6952 47.61 99.737C45.7045 99.7505 43.8175 99.3634 42.0712 98.6009C40.3249 97.8383 38.7584 96.7173 37.4731 95.3105C36.1878 93.9037 35.2125 92.2425 34.6104 90.4346C34.0083 88.6267 33.7929 86.7125 33.978 84.816C34.4329 79.8533 35.8734 75.0312 38.215 70.632C45.307 57.829 58.938 50.276 66.858 38.947C75.24 27.065 70.542 4.868 46.779 4.868C36.003 4.868 29.003 10.486 24.674 17.21C21.452 22.461 14.728 24.118 9.10999 21.816ZM65.11 136.579C65.11 140.222 64.0296 143.784 62.0056 146.813C59.9815 149.842 57.1046 152.203 53.7386 153.598C50.3727 154.992 46.6689 155.357 43.0956 154.646C39.5223 153.935 36.24 152.181 33.6637 149.605C31.0875 147.029 29.333 143.747 28.6221 140.173C27.9112 136.6 28.2758 132.896 29.6699 129.53C31.064 126.164 33.4249 123.287 36.4541 121.263C39.4833 119.239 43.0447 118.158 46.688 118.158C51.5692 118.172 56.2463 120.118 59.6979 123.569C63.1494 127.021 65.0947 131.698 65.109 136.579H65.11Z" fill="white"/>
</svg>
