<svg id="ic-Square_Root" data-name="ic-Square Root" xmlns="http://www.w3.org/2000/svg" width="34" height="34" viewBox="0 0 34 34">
  <g id="Group_583" data-name="Group 583">
    <rect id="Rectangle_942" data-name="Rectangle 942" width="34" height="34" fill="none"/>
    <rect id="Rectangle_943" data-name="Rectangle 943" width="34" height="34" fill="none"/>
  </g>
  <path id="Path_544" data-name="Path 544" d="M606.917-432.334a1.288,1.288,0,0,1-1.181-.773l-4.77-10.971h-2.219a1.289,1.289,0,0,1-1.288-1.287,1.29,1.29,0,0,1,1.288-1.287h3.069a1.286,1.286,0,0,1,1.159.731l3.812,8.769,5.949-16.981.123-.337a1.283,1.283,0,0,1,1.208-.863h6.227a1.275,1.275,0,0,1,.811.374,1.277,1.277,0,0,1,.376.91,1.288,1.288,0,0,1-1.287,1.286h-5.215L608.131-433.2a1.279,1.279,0,0,1-1.159.865Z" transform="translate(-592.47 460.833)" fill="#fff"/>
</svg>
