<svg id="ic-train-brain" xmlns="http://www.w3.org/2000/svg" width="34" height="34"
    viewBox="0 0 34 34">
    <g id="Group_521" data-name="Group 521">
        <rect id="Rectangle_919" data-name="Rectangle 919" width="34" height="34" fill="none" />
        <rect id="Rectangle_920" data-name="Rectangle 920" width="34" height="34" fill="none" />
    </g>
    <g id="Group_523" data-name="Group 523" transform="translate(5.664 4.246)">
        <g id="Group_522" data-name="Group 522">
            <path id="Path_465" data-name="Path 465"
                d="M13.6,8.57A2.026,2.026,0,1,0,15.622,10.6,2.025,2.025,0,0,0,13.6,8.57Z"
                transform="translate(-0.843 -0.675)" fill="#fff" />
            <path id="Path_466" data-name="Path 466"
                d="M17.048,3A9.906,9.906,0,0,0,6.862,12.408l-2.72,3.627a.708.708,0,0,0,.567,1.133H6.834v4.25a2.842,2.842,0,0,0,2.833,2.833h1.417v2.833A1.421,1.421,0,0,0,12.5,28.5h7.083A1.421,1.421,0,0,0,21,27.085V21.871a9.923,9.923,0,0,0,5.667-9.322A10.068,10.068,0,0,0,17.048,3ZM21,12.918c0,.184-.014.368-.028.553l1.176.935a.266.266,0,0,1,.071.354l-1.133,1.969a.285.285,0,0,1-.34.128l-1.4-.567a4.257,4.257,0,0,1-.949.552l-.227,1.5a.278.278,0,0,1-.283.241H15.617a.288.288,0,0,1-.283-.241l-.213-1.5a4.052,4.052,0,0,1-.963-.552l-1.4.567a.3.3,0,0,1-.354-.128L11.268,14.76a.268.268,0,0,1,.071-.354l1.19-.935c-.014-.184-.028-.368-.028-.552a3.475,3.475,0,0,1,.057-.552l-1.2-.935a.28.28,0,0,1-.071-.368l1.133-1.955a.279.279,0,0,1,.34-.127l1.417.567a4.5,4.5,0,0,1,.949-.553l.213-1.5a.288.288,0,0,1,.283-.241h2.267a.288.288,0,0,1,.283.241l.213,1.5a4.257,4.257,0,0,1,.949.552l1.417-.567a.273.273,0,0,1,.34.128l1.133,1.955a.284.284,0,0,1-.071.368l-1.2.935A2.283,2.283,0,0,1,21,12.918Z"
                transform="translate(-3.998 -2.997)" fill="#fff" />
        </g>
    </g>
</svg>
