<svg xmlns="http://www.w3.org/2000/svg" width="156.588" height="176" viewBox="0 0 156.588 176">
  <path id="bg-Train_Your_Brain-outline" data-name="bg-Train Your Brain-outline" d="M-6267.056-887.5h-48.6a10.149,10.149,0,0,1-7.22-3,10.149,10.149,0,0,1-3-7.22v-18.941h-9.219a19.7,19.7,0,0,1-7.745-1.574,19.976,19.976,0,0,1-6.34-4.283,19.97,19.97,0,0,1-4.283-6.339,19.693,19.693,0,0,1-1.574-7.744v-28.663h-14.082a5.343,5.343,0,0,1-4.81-2.988,5.372,5.372,0,0,1-.554-2.77,5.3,5.3,0,0,1,1.078-2.819l18.57-24.761a68.149,68.149,0,0,1,6.291-25.306,68.683,68.683,0,0,1,6.471-11.055,68.961,68.961,0,0,1,8.354-9.605,68.842,68.842,0,0,1,9.988-7.906,68.358,68.358,0,0,1,11.374-5.957,68.122,68.122,0,0,1,25.906-5.066c.667,0,1.346.01,2.015.029a66.394,66.394,0,0,1,25.115,5.783,69.774,69.774,0,0,1,11.1,6.226,71.208,71.208,0,0,1,9.773,8.1,71.181,71.181,0,0,1,8.181,9.71,69.775,69.775,0,0,1,6.322,11.059,66.544,66.544,0,0,1,6,25.12,68.366,68.366,0,0,1-10.257,38.607,68.857,68.857,0,0,1-12.573,14.96,68.822,68.822,0,0,1-16.052,10.729v35.457a10.15,10.15,0,0,1-3,7.22A10.146,10.146,0,0,1-6267.056-887.5Zm-19.4-175a67.443,67.443,0,0,0-67.392,64.1l-.008.153-.092.122-18.663,24.885a4.25,4.25,0,0,0-.427,4.542,4.349,4.349,0,0,0,3.914,2.433h15.082V-936.6a18.962,18.962,0,0,0,18.942,18.94h10.219v19.941a9.232,9.232,0,0,0,9.222,9.222h48.6a9.231,9.231,0,0,0,9.22-9.222V-933.81l.285-.136a67.681,67.681,0,0,0,38.6-63.492c-1.346-34.8-30.737-63.975-65.518-65.034C-6285.129-1062.491-6285.8-1062.5-6286.456-1062.5Zm7.735,106.956h-15.554a2.487,2.487,0,0,1-2.435-2.056l0-.027-1.417-10.019a28.244,28.244,0,0,1-6.229-3.576l-9.391,3.792a2.639,2.639,0,0,1-.84.136,2.481,2.481,0,0,1-2.184-1.237l-7.771-13.5a2.347,2.347,0,0,1,.611-3.083l7.951-6.248c-.089-1.162-.175-2.359-.175-3.562a23.409,23.409,0,0,1,.347-3.578l-8.025-6.232a2.422,2.422,0,0,1-.63-3.148l.015-.027,7.775-13.411a2.378,2.378,0,0,1,2.1-1.236,2.593,2.593,0,0,1,.825.136l.027.01,9.461,3.784a31.567,31.567,0,0,1,6.131-3.573l1.423-10.051a2.487,2.487,0,0,1,2.435-2.056h15.554a2.487,2.487,0,0,1,2.433,2.056l0,.028,1.418,10.023a29.6,29.6,0,0,1,6.134,3.572l9.486-3.793a2.633,2.633,0,0,1,.838-.136,2.249,2.249,0,0,1,2.1,1.254l7.768,13.4a2.435,2.435,0,0,1-.62,3.168l-8.005,6.217a16.711,16.711,0,0,1,.328,3.592c0,1.193-.085,2.4-.175,3.564l7.855,6.247a2.309,2.309,0,0,1,.617,3.069l0,.006-7.774,13.51a2.448,2.448,0,0,1-2.143,1.237,2.26,2.26,0,0,1-.8-.142l-.011,0-9.362-3.781a29.476,29.476,0,0,1-6.134,3.573l-1.513,10.015A2.4,2.4,0,0,1-6278.72-955.544Zm-17-2.238a1.478,1.478,0,0,0,1.451,1.238h15.554a1.4,1.4,0,0,0,1.445-1.2l0-.025,1.6-10.583.26-.108a28.555,28.555,0,0,0,6.4-3.727l.227-.173,9.882,3.992a1.283,1.283,0,0,0,.443.076,1.453,1.453,0,0,0,1.272-.727l0-.006,7.773-13.508a1.324,1.324,0,0,0-.349-1.785l-.011-.009-8.275-6.582.02-.264c.094-1.234.192-2.508.192-3.752a15.052,15.052,0,0,0-.373-3.669l-.079-.316,8.526-6.622a1.445,1.445,0,0,0,.35-1.881l-7.786-13.433-.011-.024a1.274,1.274,0,0,0-1.2-.687,1.635,1.635,0,0,0-.508.08l-9.971,3.987-.225-.172a28.67,28.67,0,0,0-6.4-3.727l-.263-.11-.04-.282-1.456-10.289a1.478,1.478,0,0,0-1.45-1.239h-15.554a1.478,1.478,0,0,0-1.451,1.238l-1.5,10.571-.263.11a30.471,30.471,0,0,0-6.406,3.729l-.225.169-9.967-3.986a1.594,1.594,0,0,0-.495-.08,1.373,1.373,0,0,0-1.23.726l0,.008-7.769,13.4a1.425,1.425,0,0,0,.346,1.89l.007.005,8.5,6.6-.049.294a23.694,23.694,0,0,0-.381,3.709c0,1.257.1,2.525.193,3.752l.021.266-.21.165-8.175,6.424a1.34,1.34,0,0,0-.362,1.765l.009.015,7.781,13.519a1.463,1.463,0,0,0,1.312.726,1.642,1.642,0,0,0,.509-.08l9.874-3.988.227.173a27.315,27.315,0,0,0,6.491,3.724l.269.107Zm9.228-22.744a14.305,14.305,0,0,1-10.184-4.217,14.306,14.306,0,0,1-4.217-10.184,14.307,14.307,0,0,1,4.217-10.184,14.305,14.305,0,0,1,10.184-4.217,14.307,14.307,0,0,1,10.183,4.217,14.306,14.306,0,0,1,4.217,10.184,14.306,14.306,0,0,1-4.217,10.184A14.307,14.307,0,0,1-6286.5-980.527Zm0-27.8a13.415,13.415,0,0,0-13.4,13.4,13.415,13.415,0,0,0,13.4,13.4,13.415,13.415,0,0,0,13.4-13.4A13.415,13.415,0,0,0-6286.5-1008.328Z" transform="translate(6374.5 1063.5)" fill="#b5179e" opacity="0.16"/>
</svg>
